<svg width="39" height="38" viewBox="0 0 39 38" fill="none" xmlns="http://www.w3.org/2000/svg">
<path d="M16.0026 29.2255C14.8396 29.2255 13.8108 29.0913 12.9162 28.8229C12.0395 28.5545 11.2969 28.0624 10.6886 27.3467C10.0981 26.631 9.65081 25.6112 9.34664 24.2871C9.04247 22.9631 8.89038 21.2275 8.89038 19.0804C8.89038 17.0586 9.04247 15.3946 9.34664 14.0884C9.6687 12.7823 10.1339 11.7624 10.7423 11.0288C11.3685 10.2952 12.1289 9.78528 13.0235 9.499C13.9182 9.21272 14.938 9.06958 16.0832 9.06958C16.8704 9.06958 17.6309 9.11431 18.3644 9.20378C19.1159 9.29324 19.8048 9.40059 20.431 9.52584C21.0752 9.65109 21.6298 9.78528 22.095 9.92842V12.4781C21.7909 12.4065 21.3614 12.3439 20.8068 12.2902C20.2521 12.2187 19.6259 12.165 18.9281 12.1292C18.2303 12.0755 17.5056 12.0487 16.7541 12.0487C15.9311 12.0487 15.2243 12.1471 14.6339 12.3439C14.0613 12.5228 13.5961 12.8628 13.2383 13.3638C12.8804 13.8648 12.621 14.5805 12.4599 15.5109C12.2989 16.4413 12.2184 17.649 12.2184 19.1341C12.2184 20.6013 12.29 21.8001 12.4331 22.7305C12.5941 23.6609 12.8357 24.3855 13.1577 24.9044C13.4977 25.4054 13.954 25.7543 14.5265 25.9511C15.117 26.1479 15.8506 26.2464 16.7273 26.2464C18.0692 26.2464 19.1696 26.2195 20.0284 26.1658C20.8873 26.0943 21.5761 26.0227 22.095 25.9511V28.5008C21.594 28.6439 21.0215 28.7692 20.3773 28.8765C19.7511 28.9839 19.0712 29.0644 18.3376 29.1181C17.6219 29.1897 16.8436 29.2255 16.0026 29.2255Z" fill="#D4CAEE"/>
<path d="M11.7419 1.8064H26.9734L37.524 19L26.9734 36.1935H11.7419C5.95185 36.1935 1.25806 31.4997 1.25806 25.7096V12.2903C1.25806 6.5002 5.95185 1.8064 11.7419 1.8064Z" stroke="#D4CAEE" stroke-width="2.51613"/>
</svg>
