<svg width="26" height="26" viewBox="0 0 26 26" fill="none" xmlns="http://www.w3.org/2000/svg">
<path d="M23.8334 13.0001C23.8334 13.5984 23.3484 14.0834 22.7501 14.0834H14.0834V22.7501C14.0834 23.3484 13.5984 23.8334 13.0001 23.8334C12.4018 23.8334 11.9167 23.3484 11.9167 22.7501V14.0834H3.25008C2.65177 14.0834 2.16675 13.5984 2.16675 13.0001C2.16675 12.4018 2.65177 11.9167 3.25008 11.9167H11.9167V3.25008C11.9167 2.65177 12.4018 2.16675 13.0001 2.16675C13.5984 2.16675 14.0834 2.65177 14.0834 3.25008V11.9167H22.7501C23.3484 11.9167 23.8334 12.4018 23.8334 13.0001Z" fill="white"/>
</svg>
