<svg width="27" height="27" viewBox="0 0 27 27" fill="none" xmlns="http://www.w3.org/2000/svg">
<path fill-rule="evenodd" clip-rule="evenodd" d="M23.9737 10.2489L22.5 9.76512L23.1975 8.39262C23.4193 7.95959 23.3376 7.43307 22.995 7.08762L19.9125 3.99387C19.567 3.65129 19.0405 3.56959 18.6075 3.79137L17.235 4.50012L16.7512 3.03762C16.5944 2.55461 16.1335 2.23655 15.6262 2.26137H11.3175C10.8103 2.23655 10.3493 2.55461 10.1925 3.03762L9.76499 4.50012L8.39249 3.79137C7.95947 3.56959 7.43295 3.65129 7.08749 3.99387L3.99374 7.08762C3.65117 7.43307 3.56946 7.95959 3.79124 8.39262L4.49999 9.76512L3.03749 10.2489C2.55449 10.4057 2.23642 10.8666 2.26124 11.3739V15.7389C2.23642 16.2461 2.55449 16.707 3.03749 16.8639L4.49999 17.3476L3.80249 18.7201C3.58071 19.1531 3.66242 19.6797 4.00499 20.0251L7.08749 23.0064C7.43295 23.3489 7.95947 23.4306 8.39249 23.2089L9.76499 22.5001L10.2487 23.9626C10.4056 24.4456 10.8665 24.7637 11.3737 24.7389H15.7387C16.246 24.7637 16.7069 24.4456 16.8637 23.9626L17.3475 22.5001L18.72 23.1976C19.153 23.4194 19.6795 23.3377 20.025 22.9951L23.1187 19.9014C23.4613 19.5559 23.543 19.0294 23.3212 18.5964L22.5 17.2351L23.9625 16.7514C24.4455 16.5945 24.7636 16.1336 24.7387 15.6264V11.3176C24.74 10.834 24.432 10.4036 23.9737 10.2489ZM7.87499 13.5001C7.87499 10.3935 10.3934 7.87512 13.5 7.87512C14.9918 7.87512 16.4226 8.46775 17.4775 9.52264C18.5324 10.5775 19.125 12.0083 19.125 13.5001C19.125 16.6067 16.6066 19.1251 13.5 19.1251C10.3934 19.1251 7.87499 16.6067 7.87499 13.5001ZM10.125 13.5001C10.125 15.3641 11.636 16.8751 13.5 16.8751C14.3951 16.8751 15.2535 16.5195 15.8865 15.8866C16.5194 15.2537 16.875 14.3952 16.875 13.5001C16.875 11.6362 15.364 10.1251 13.5 10.1251C11.636 10.1251 10.125 11.6362 10.125 13.5001ZM21.8137 15.0976L22.5 14.8726V12.1276L21.8137 11.9026C21.1892 11.701 20.6838 11.2367 20.43 10.6314C20.1808 10.0236 20.2095 9.33735 20.5087 8.75262L20.835 8.10012L18.9 6.16512L18.2475 6.49137C17.6627 6.78624 16.9784 6.81165 16.3733 6.56098C15.7683 6.3103 15.3024 5.80842 15.0975 5.18637L14.8725 4.50012H12.1275L11.9025 5.18637C11.6975 5.80842 11.2317 6.3103 10.6267 6.56098C10.0216 6.81165 9.33731 6.78624 8.75249 6.49137L8.09999 6.16512L6.16499 8.10012L6.49124 8.75262C6.79047 9.33735 6.81924 10.0236 6.56999 10.6314C6.31623 11.2367 5.81083 11.701 5.18624 11.9026L4.49999 12.1276V14.8726L5.18624 15.0976C5.81083 15.2993 6.31623 15.7636 6.56999 16.3689C6.81924 16.9766 6.79047 17.6629 6.49124 18.2476L6.16499 18.9001L8.09999 20.8351L8.75249 20.5089C9.33731 20.214 10.0216 20.1886 10.6267 20.4393C11.2317 20.6899 11.6975 21.1918 11.9025 21.8139L12.1275 22.5001H14.8725L15.0975 21.8139C15.3024 21.1918 15.7683 20.6899 16.3733 20.4393C16.9784 20.1886 17.6627 20.214 18.2475 20.5089L18.9 20.8351L20.835 18.9001L20.5087 18.2476C20.2095 17.6629 20.1808 16.9766 20.43 16.3689C20.6838 15.7636 21.1892 15.2993 21.8137 15.0976Z" fill="#D4CAEE"/>
</svg>
